<svg width="40" height="40" viewBox="0 0 40 40" fill="none" xmlns="http://www.w3.org/2000/svg">
    <path d="M12.96 17.1075L20.0001 10.0674L27.0435 17.1106L31.1398 13.0143L20.0001 1.87488L8.86403 13.011L12.9602 17.1073L12.96 17.1075ZM1.875 20L5.97141 15.903L10.0675 19.9992L5.97112 24.0956L1.875 20ZM12.96 22.893L20.0001 29.9326L27.0433 22.8896L31.1418 26.9837L31.1398 26.9859L20.0001 38.1252L8.86403 26.9891L8.85823 26.9833L12.9604 22.8925L12.96 22.893ZM29.9326 20.0018L34.029 15.9053L38.1252 20.0015L34.0289 24.0979L29.9326 20.0018Z" fill="#FFD22A" />
    <path d="M24.1551 19.9979H24.1569L20.0006 15.8413L16.9284 18.9126L16.5755 19.2657L15.8476 19.9937L15.8418 19.9994L15.8476 20.0053L20.0006 24.1589L24.1572 20.0023L24.1592 19.9999L24.1554 19.9979" fill="#FFD22B" />
</svg>