<?xml version="1.0" encoding="UTF-8"?>
<svg xmlns="http://www.w3.org/2000/svg" xmlns:xlink="http://www.w3.org/1999/xlink" width="40px" height="40px" viewBox="0 0 40 40" version="1.1">
    <g id="surface1">
        <rect width="100%" height="100%" fill="white" />
        <path style=" stroke:none;fill-rule:nonzero;fill:rgb(0%,32.156863%,100%);fill-opacity:1;" d="M 0 20 L 0 40 L 40 40 L 40 0 L 0 0 Z M 23.433594 6.332031 C 28.464844 7.617188 32.332031 11.484375 33.683594 16.582031 C 34.183594 18.449219 34.183594 21.550781 33.683594 23.417969 C 32.332031 28.515625 28.515625 32.332031 23.417969 33.683594 C 21.550781 34.183594 18.449219 34.183594 16.582031 33.683594 C 11.484375 32.332031 7.667969 28.515625 6.316406 23.417969 C 5.816406 21.535156 5.816406 18.449219 6.316406 16.582031 C 7.832031 10.949219 12.332031 6.898438 18.082031 6 C 19.464844 5.800781 21.882812 5.933594 23.433594 6.332031 Z M 23.433594 6.332031 "/>
        <path style=" stroke:none;fill-rule:nonzero;fill:rgb(0%,32.156863%,100%);fill-opacity:1;" d="M 15.867188 15.765625 C 15.5 16.015625 15.5 16.082031 15.5 19.984375 C 15.5 23.617188 15.535156 23.964844 15.800781 24.214844 C 16.066406 24.464844 16.617188 24.5 20.035156 24.5 C 23.617188 24.5 23.964844 24.464844 24.214844 24.199219 C 24.464844 23.933594 24.5 23.382812 24.5 19.964844 C 24.5 16.382812 24.464844 16.035156 24.199219 15.785156 C 23.75 15.367188 16.433594 15.367188 15.867188 15.765625 Z M 15.867188 15.765625 "/>
    </g>
</svg>
