<svg width="25" height="25" viewBox="0 0 25 25" fill="none" xmlns="http://www.w3.org/2000/svg">
<path d="M23.923 0.993446C23.824 0.893706 23.705 0.815971 23.5739 0.765313C23.4427 0.714654 23.3024 0.69221 23.162 0.699446C9.13302 1.43145 3.95202 13.9274 3.90202 14.0534C3.82884 14.2352 3.81068 14.4345 3.8498 14.6265C3.88891 14.8185 3.98357 14.9948 4.12202 15.1334L9.77902 20.7904C9.91833 20.9296 10.0956 21.0244 10.2886 21.0632C10.4816 21.102 10.6818 21.0829 10.864 21.0084C10.989 20.9574 23.418 15.7174 24.212 1.75545C24.2199 1.61519 24.1982 1.47484 24.1482 1.34355C24.0982 1.21226 24.0222 1.09296 23.923 0.993446ZM15.757 11.9834C15.5713 12.1692 15.3509 12.3166 15.1082 12.4171C14.8656 12.5177 14.6055 12.5695 14.3429 12.5695C14.0802 12.5695 13.8201 12.5179 13.5775 12.4174C13.3348 12.3169 13.1143 12.1696 12.9285 11.9839C12.7428 11.7983 12.5954 11.5778 12.4948 11.3352C12.3943 11.0925 12.3425 10.8324 12.3425 10.5698C12.3424 10.3071 12.3941 10.0471 12.4946 9.80439C12.595 9.56171 12.7423 9.3412 12.928 9.15545C13.303 8.7803 13.8117 8.56949 14.3422 8.56939C14.8726 8.5693 15.3814 8.77993 15.7565 9.15495C16.1317 9.52996 16.3425 10.0386 16.3426 10.5691C16.3427 11.0995 16.132 11.6083 15.757 11.9834ZM1.45602 19.4134C1.72011 19.1494 2.03362 18.9399 2.37867 18.7969C2.72372 18.654 3.09354 18.5805 3.46702 18.5805C3.84049 18.5805 4.21032 18.654 4.55536 18.7969C4.90041 18.9399 5.21393 19.1494 5.47802 19.4134C5.74211 19.6775 5.95159 19.9911 6.09452 20.3361C6.23744 20.6811 6.311 21.051 6.311 21.4244C6.311 21.7979 6.23744 22.1677 6.09452 22.5128C5.95159 22.8578 5.74211 23.1714 5.47802 23.4354C4.36702 24.5464 0.343018 24.5694 0.343018 24.5694C0.343018 24.5694 0.343018 20.5234 1.45602 19.4134ZM10.7 2.91045C9.29056 2.66505 7.84274 2.76266 6.47898 3.19502C5.11522 3.62739 3.87562 4.38179 2.86502 5.39445C2.33102 5.93445 1.86502 6.53845 1.48102 7.19445C1.3685 7.38549 1.32267 7.60852 1.35073 7.82845C1.37879 8.04839 1.47914 8.25276 1.63602 8.40945L3.62602 10.3994C5.47394 7.46636 7.87692 4.9224 10.7 2.91045ZM22.002 14.2124C22.2474 15.6219 22.1498 17.0697 21.7174 18.4335C21.2851 19.7972 20.5307 21.0368 19.518 22.0474C18.978 22.5824 18.373 23.0474 17.718 23.4314C17.527 23.544 17.3039 23.5898 17.084 23.5617C16.8641 23.5337 16.6597 23.4333 16.503 23.2764L14.513 21.2874C17.4462 19.4393 19.9902 17.0359 22.002 14.2124Z" fill="#777786"/>
</svg>
